<svg width="32" height="32" viewBox="0 0 32 32" fill="none" xmlns="http://www.w3.org/2000/svg">
<g clip-path="url(#clip0_2916_19436)">
<path fill-rule="evenodd" clip-rule="evenodd" d="M1.03136 16.1209C1.03136 7.88031 7.73565 1.17574 15.9763 1.17574C19.0529 1.16652 22.0561 2.11584 24.5685 3.89178L22.4792 6.72736C22.3568 6.89384 22.3453 7.11734 22.4501 7.29563C22.5553 7.47363 22.7563 7.57213 22.9614 7.54534L27.958 6.89643C28.0977 6.87857 28.2238 6.80426 28.3073 6.69107C28.3909 6.57759 28.4246 6.43531 28.4004 6.29648L27.5395 1.33184C27.5043 1.12792 27.3508 0.964904 27.1495 0.91738C26.9482 0.870145 26.7379 0.947335 26.6155 1.11381L25.1809 3.06084C19.3608 -1.03685 11.5321 -0.791455 5.98016 3.66281C0.427956 8.11678 -1.50928 15.7059 1.22866 22.2759C1.34041 22.5363 1.64082 22.6579 1.90205 22.5487C2.16329 22.4395 2.28771 22.1403 2.18115 21.8779C1.41846 20.0544 1.02762 18.0973 1.03136 16.1209ZM30.0941 9.48374C29.8311 9.59377 29.707 9.8959 29.817 10.1589C30.5794 11.9823 30.9703 13.9397 30.9665 15.9161C30.9665 24.1567 24.2622 30.8613 16.0216 30.8613C12.945 30.8705 9.94176 29.9212 7.42935 28.1453L9.51866 25.3097C9.64136 25.1432 9.65259 24.9197 9.54775 24.7417C9.44291 24.5634 9.24158 24.4652 9.03651 24.4917L4.0399 25.1406C3.90021 25.1588 3.77406 25.2328 3.69053 25.3463C3.60701 25.4595 3.57331 25.602 3.5975 25.7406L4.45811 30.7052C4.49325 30.9091 4.64677 31.0721 4.84809 31.1197C5.04942 31.1672 5.25968 31.09 5.38238 30.9232L6.81673 28.9768C12.6368 33.0742 20.4652 32.8288 26.0171 28.3748C31.5693 23.9208 33.5066 16.332 30.7689 9.76168C30.6595 9.49843 30.3571 9.374 30.0941 9.48374ZM6.56055 9.26996V20.5944C6.56083 20.9948 6.88544 21.3197 7.28607 21.3199H8.37221C8.61904 20.0578 9.72505 19.1471 11.0111 19.1471C12.2971 19.1471 13.4031 20.0578 13.6499 21.3199H16.6295V9.26996C16.6292 8.86932 16.3046 8.54472 15.904 8.54443H7.28607C6.88572 8.54472 6.56112 8.86932 6.56055 9.26996ZM9.35436 21.8358C9.35436 22.7508 10.096 23.4928 11.0111 23.4928C11.9255 23.4913 12.6666 22.7505 12.6678 21.8358C12.6678 20.9207 11.9261 20.1791 11.0111 20.1791C10.096 20.1791 9.35436 20.9207 9.35436 21.8358ZM19.3291 21.8358C19.3291 22.7508 20.0708 23.4928 20.9858 23.4928C21.9003 23.4913 22.6414 22.7505 22.6425 21.8361C22.6428 20.921 21.9009 20.1791 20.9858 20.1791C20.0708 20.1791 19.3291 20.9207 19.3291 21.8358ZM24.7108 21.3197C25.1115 21.3194 25.4358 20.9948 25.4364 20.5944V16.3156H17.6618V21.3197H18.347C18.5938 20.0575 19.6998 19.1468 20.9858 19.1468C22.2719 19.1468 23.3779 20.0575 23.6247 21.3197H24.7108ZM22.3738 12.6634C22.2364 12.514 22.0426 12.4287 21.8393 12.4287H17.6618V15.2833H24.7782L22.3738 12.6634Z" fill="#EF6498"/>
</g>
<defs>
<clipPath id="clip0_2916_19436">
<rect width="32" height="32" fill="white"/>
</clipPath>
</defs>
</svg>
