<svg width="20" height="14" viewBox="0 0 20 14" fill="none" xmlns="http://www.w3.org/2000/svg">
<g clip-path="url(#clip0_29254_1793)">
<path d="M0 0.333344H20V4.77779H0V0.333344Z" fill="#EF4444"/>
<path d="M0 4.7778H20V9.22225H0V4.7778Z" fill="#F5F5F5"/>
<path d="M0 9.22223H20V13.6667H0V9.22223Z" fill="#262626"/>
<path d="M11.0961 6.04496C10.8164 6.12796 10.5306 6.18237 10.2431 6.20943V5.11108H9.82568C9.6223 5.11108 9.45298 5.2567 9.41589 5.44943C9.21495 5.485 9.06234 5.6601 9.06234 5.87108H9.40829V6.20943C9.12071 6.18237 8.83495 6.12796 8.55527 6.04496C8.16707 5.92975 7.77734 6.22037 7.77734 6.6253V8.59702C7.77734 8.82837 8.03483 8.96668 8.22787 8.83901L8.94196 8.16778L8.60878 8.74477C8.51119 8.91409 8.51119 9.11595 8.60878 9.28527C8.70636 9.4546 8.88146 9.55553 9.07693 9.55553H10.5744C10.7699 9.55553 10.9447 9.4546 11.0426 9.28527C11.1402 9.11595 11.1402 8.91409 11.0426 8.74477L10.7094 8.16778L11.4235 8.83901C11.6162 8.96699 11.874 8.82867 11.874 8.59702V6.6253C11.874 6.22037 11.4843 5.92945 11.0961 6.04466V6.04496ZM10.6738 9.07217C10.6638 9.0895 10.6343 9.12963 10.5744 9.12963H9.07693C9.01705 9.12963 8.98725 9.0895 8.97753 9.07217C8.96749 9.05484 8.94773 9.00924 8.97753 8.95726L9.60984 7.86196C9.6749 7.74948 9.78251 7.73732 9.82568 7.73732C9.86885 7.73732 9.97646 7.74948 10.0415 7.86196L10.6738 8.95726C10.7036 9.00894 10.6839 9.05484 10.6738 9.07217Z" fill="#FBBF24"/>
</g>
<defs>
<clipPath id="clip0_29254_1793">
<rect y="0.333344" width="20" height="13.3333" rx="2.96296" fill="white"/>
</clipPath>
</defs>
</svg>
