<svg width="24" height="24" viewBox="0 0 24 24" fill="none" xmlns="http://www.w3.org/2000/svg">
<path opacity="0.4" d="M19.8179 16.3208C19.8179 16.6326 19.7486 16.9532 19.6013 17.265C19.4541 17.5769 19.2635 17.8714 19.0123 18.1486C18.5878 18.6164 18.12 18.9542 17.5916 19.1708C17.0718 19.3874 16.5001 19.5 15.8937 19.5C15.0101 19.5 14.0659 19.2921 13.0696 18.8676C12.0734 18.4432 11.0686 17.8714 10.081 17.1524C9.57858 16.7799 9.08485 16.3988 8.6084 15.9829L11.4324 13.1589C11.4411 13.1589 11.4411 13.1589 11.4497 13.1676C11.9002 13.5487 12.2727 13.8086 12.5672 13.9645C12.6105 13.9819 12.6625 14.0078 12.7231 14.0338C12.7924 14.0598 12.8617 14.0685 12.9397 14.0685C13.087 14.0685 13.1996 14.0165 13.2949 13.9212L13.9532 13.2715C14.1698 13.055 14.3777 12.8904 14.577 12.7864C14.7762 12.6651 14.9754 12.6045 15.192 12.6045C15.3566 12.6045 15.5299 12.6391 15.7204 12.7171C15.911 12.7951 16.1103 12.9077 16.3268 13.055L19.2028 15.0907C19.4281 15.2466 19.584 15.4285 19.6793 15.6451C19.7659 15.8617 19.8179 16.0782 19.8179 16.3208Z" fill="white"/>
<path d="M11.5885 13.2369L8.76448 16.0609C8.75582 16.0609 8.75582 16.0609 8.74716 16.0522C7.8549 15.1513 7.04927 14.2071 6.3216 13.2195C5.61992 12.2493 5.05685 11.2704 4.64104 10.3089C4.63238 10.2916 4.63238 10.2829 4.62371 10.2656C4.2079 9.27802 4 8.33378 4 7.43286C4 6.8438 4.10395 6.28073 4.31186 5.76096C4.48511 5.31917 4.74499 4.90336 5.10016 4.53086C5.1608 4.46156 5.2301 4.3836 5.30807 4.31429C5.44667 4.17569 5.58527 4.05441 5.73254 3.95912C5.7412 3.95912 5.7412 3.95912 5.7412 3.95912C6.17434 3.64727 6.63346 3.5 7.11857 3.5C7.36113 3.5 7.60368 3.55198 7.82025 3.65593C8.02815 3.75122 8.21007 3.88982 8.35734 4.08906C8.37466 4.10639 8.38332 4.12371 8.40065 4.14104L10.4104 6.97374C10.5663 7.19031 10.6789 7.38955 10.7569 7.58013C10.8349 7.76205 10.8782 7.94396 10.8782 8.10855C10.8782 8.31646 10.8175 8.52436 10.6963 8.72361C10.5836 8.92285 10.4191 9.13075 10.2112 9.33866L9.55279 10.023C9.4575 10.1183 9.41419 10.2309 9.41419 10.3695C9.41419 10.4388 9.42285 10.4995 9.44017 10.5688C9.46616 10.6381 9.49215 10.69 9.50947 10.742C9.6654 11.0279 9.93395 11.4004 10.3151 11.8508C10.7049 12.3013 11.1207 12.7604 11.5712 13.2195C11.5799 13.2282 11.5799 13.2282 11.5885 13.2369Z" fill="white"/>
</svg>
