<svg width="33" height="32" viewBox="0 0 33 32" fill="none" xmlns="http://www.w3.org/2000/svg">
<path fill-rule="evenodd" clip-rule="evenodd" d="M21.6525 3.79661V2.98305C21.6528 2.59125 21.5758 2.20324 21.4259 1.84122C21.2761 1.47919 21.0564 1.15025 20.7793 0.873207C20.5023 0.596159 20.1733 0.376439 19.8113 0.226607C19.4493 0.076776 19.0613 -0.000227652 18.6695 0H3.48305C3.09125 -0.000227652 2.70324 0.076776 2.34122 0.226607C1.97919 0.376439 1.65025 0.596159 1.37321 0.873207C1.09616 1.15025 0.876439 1.47919 0.726607 1.84122C0.576776 2.20324 0.499772 2.59125 0.5 2.98305V29.0169C0.499772 29.4088 0.576776 29.7968 0.726607 30.1588C0.876439 30.5208 1.09616 30.8497 1.37321 31.1268C1.65025 31.4038 1.97919 31.6236 2.34122 31.7734C2.70324 31.9232 3.09125 32.0002 3.48305 32H18.6695C19.0613 32.0002 19.4493 31.9232 19.8113 31.7734C20.1733 31.6236 20.5023 31.4038 20.7793 31.1268C21.0564 30.8497 21.2761 30.5208 21.4259 30.1588C21.5758 29.7968 21.6528 29.4088 21.6525 29.0169V21.6949H20.0254V23.8644H2.12712V2.98305C2.12712 2.62344 2.26998 2.27855 2.52426 2.02426C2.77855 1.76998 3.12344 1.62712 3.48305 1.62712H18.6695C19.0291 1.62712 19.374 1.76998 19.6283 2.02426C19.8826 2.27855 20.0254 2.62344 20.0254 2.98305V3.79661H21.6525ZM11.0763 27.1186C11.2372 27.1186 11.3945 27.1664 11.5283 27.2558C11.662 27.3451 11.7663 27.4722 11.8279 27.6209C11.8895 27.7695 11.9056 27.9331 11.8742 28.0909C11.8428 28.2487 11.7653 28.3937 11.6515 28.5075C11.5378 28.6213 11.3928 28.6987 11.235 28.7301C11.0772 28.7615 10.9136 28.7454 10.7649 28.6838C10.6163 28.6223 10.4892 28.518 10.3998 28.3842C10.3104 28.2504 10.2627 28.0931 10.2627 27.9322C10.2643 27.7169 10.3505 27.5109 10.5027 27.3587C10.655 27.2064 10.861 27.1202 11.0763 27.1186ZM30.0595 5.42383H13.7883C13.1413 5.42472 12.521 5.68215 12.0635 6.13967C11.606 6.59719 11.3485 7.21747 11.3477 7.86451V9.76281H32.5002V7.86451C32.4993 7.21747 32.2419 6.59719 31.7844 6.13967C31.3268 5.68215 30.7066 5.42472 30.0595 5.42383ZM11.3477 17.6272V11.3899H32.5002V17.6272C32.4992 18.2742 32.2418 18.8944 31.7843 19.352C31.3268 19.8095 30.7065 20.0669 30.0595 20.0679H13.7883C13.1413 20.0669 12.5211 19.8095 12.0636 19.352C11.6061 18.8944 11.3486 18.2742 11.3477 17.6272ZM25.1782 16.8137H28.4324C28.6482 16.8137 28.8551 16.7279 29.0077 16.5754C29.1602 16.4228 29.246 16.2159 29.246 16.0001C29.246 15.7843 29.1602 15.5774 29.0077 15.4248C28.8551 15.2722 28.6482 15.1865 28.4324 15.1865H25.1782C24.9624 15.1865 24.7555 15.2722 24.6029 15.4248C24.4503 15.5774 24.3646 15.7843 24.3646 16.0001C24.3646 16.2159 24.4503 16.4228 24.6029 16.5754C24.7555 16.7279 24.9624 16.8137 25.1782 16.8137Z" fill="#EF6498"/>
</svg>
