<svg width="32" height="32" viewBox="0 0 32 32" fill="none" xmlns="http://www.w3.org/2000/svg">
<g clip-path="url(#clip0_2916_19411)">
<path fill-rule="evenodd" clip-rule="evenodd" d="M17.5329 1.10566C20.2039 1.10566 22.3689 3.27072 22.3689 5.94171V8.97335H23.4746V5.94171C23.4746 2.6602 20.8144 0 17.5329 0C14.2517 0 11.5915 2.6602 11.5915 5.94171V8.97335H12.6972V5.94171C12.6972 3.27072 14.8622 1.10566 17.5329 1.10566ZM9.14062 24.3161C9.14062 23.2912 8.33513 22.457 7.34484 22.457C6.35456 22.457 5.54876 23.2912 5.54876 24.3161C5.54876 25.3412 6.35456 26.1751 7.34484 26.1751C8.33513 26.1751 9.14062 25.3412 9.14062 24.3161ZM13.0521 26.8143C13.3442 26.0258 13.4676 25.1848 13.4136 24.3457C13.313 22.8164 12.6621 21.3754 11.5814 20.2886C10.4619 19.1588 8.93574 18.5255 7.34511 18.5301C7.21369 18.5301 7.08288 18.5357 6.9527 18.5443L8.48502 9.89459L8.48687 9.88379C8.56708 9.35872 9.01996 8.97125 9.5515 8.97341H11.5907V11.9773C11.5907 12.2827 11.8381 12.5301 12.1435 12.5301C12.4486 12.5301 12.6964 12.2827 12.6964 11.9773V8.97341H22.3681V11.9773C22.3681 12.2827 22.6159 12.5301 22.921 12.5301C23.2264 12.5301 23.4738 12.2827 23.4738 11.9773V8.97341H25.513C26.0442 8.97125 26.4974 9.35872 26.5776 9.8841C26.5778 9.88645 26.5784 9.88895 26.5789 9.89139L26.5795 9.89459L29.6151 27.0333C29.588 28.5098 28.3842 29.6932 26.9074 29.6948H11.0258L11.6721 29.0065C12.2759 28.3768 12.7454 27.6309 13.0521 26.8143ZM3.89252 21.069C3.00034 21.9664 2.46324 23.1566 2.38025 24.4193C2.33706 25.1048 2.43825 25.7915 2.67734 26.4354C2.93308 27.1119 3.32334 27.7292 3.82496 28.2503L7.34556 32.0001L10.8662 28.25C11.3675 27.7292 11.758 27.1116 12.0135 26.4351C12.2526 25.7915 12.3541 25.1045 12.3106 24.4193C12.2276 23.1566 11.6905 21.9664 10.7986 21.069C9.88359 20.1512 8.64126 19.6357 7.34556 19.6357C6.04986 19.6357 4.80722 20.1512 3.89252 21.069ZM10.247 24.316C10.247 25.9507 8.94545 27.2807 7.34556 27.2807C5.74537 27.2807 4.44381 25.9507 4.44381 24.316C4.44381 22.6812 5.74568 21.3513 7.34556 21.3513C8.94545 21.3513 10.247 22.6815 10.247 24.316Z" fill="#EF6498"/>
</g>
<defs>
<clipPath id="clip0_2916_19411">
<rect width="32" height="32" fill="white" transform="matrix(-1 0 0 1 32 0)"/>
</clipPath>
</defs>
</svg>
