<svg width="25" height="24" viewBox="0 0 25 24" fill="none" xmlns="http://www.w3.org/2000/svg">
<path d="M13.213 17.8781L17.938 20.8781C18.5474 21.2625 19.2974 20.6906 19.1193 19.9875L17.7505 14.6063C17.7135 14.4571 17.7194 14.3005 17.7675 14.1546C17.8156 14.0086 17.904 13.8792 18.0224 13.7813L22.2599 10.2469C22.813 9.78752 22.5318 8.8594 21.8099 8.81252L16.2787 8.45627C16.1277 8.44749 15.9826 8.39494 15.8611 8.30503C15.7396 8.21513 15.6468 8.09177 15.5943 7.95002L13.5318 2.75627C13.4772 2.60618 13.3777 2.47653 13.2469 2.38491C13.1161 2.29329 12.9602 2.24414 12.8005 2.24414C12.6408 2.24414 12.485 2.29329 12.3542 2.38491C12.2233 2.47653 12.1239 2.60618 12.0693 2.75627L10.0068 7.95002C9.95422 8.09177 9.8615 8.21513 9.73996 8.30503C9.61842 8.39494 9.47333 8.44749 9.32241 8.45627L3.79116 8.81252C3.06928 8.8594 2.78803 9.78752 3.34116 10.2469L7.57866 13.7813C7.6971 13.8792 7.78546 14.0086 7.83356 14.1546C7.88166 14.3005 7.88754 14.4571 7.85053 14.6063L6.58491 19.5938C6.36928 20.4375 7.26928 21.1219 7.99116 20.6625L12.388 17.8781C12.5113 17.7997 12.6544 17.7581 12.8005 17.7581C12.9466 17.7581 13.0897 17.7997 13.213 17.8781Z" fill="#FDC040"/>
</svg>
